<svg id="Layer_1" data-name="Layer 1" xmlns="http://www.w3.org/2000/svg" viewBox="0 0 69.09 80"><defs><style>.cls-1{fill:#7fffd4;}.cls-2{fill:#202020;}.cls-3{fill:#f5f5f5;}</style></defs><title>favicon</title><polygon class="cls-1" points="34.54 0 0 20 0 60 34.54 80 69.09 60 69.09 20 34.54 0"/><polygon class="cls-2" points="34.54 5 4.32 22.5 4.32 57.5 34.54 75 64.77 57.5 64.77 22.5 34.54 5"/><path class="cls-3" d="M102.08,35.67h4.84V46H107l6.39-10.35h5.33l-6.49,10.11L120,61h-5.32l-5.21-10.7-2.5,3.91V61h-4.84Z" transform="translate(-88.55 -8.95)"/><path class="cls-3" d="M126.52,48.48c0-8.4,4.72-13.27,10.44-13.27a8.65,8.65,0,0,1,6.76,3.28l-2.55,3.68a5.18,5.18,0,0,0-4-2c-3.29,0-5.64,3.06-5.64,8.14s2,8.24,6,8.24a3.43,3.43,0,0,0,2.27-.76V51.4h-3.55V46.72h7.85V58.4A9.48,9.48,0,0,1,137,61.47C131.11,61.47,126.52,57,126.52,48.48Z" transform="translate(-88.55 -8.95)"/></svg>