<svg id="Layer_1" data-name="Layer 1" xmlns="http://www.w3.org/2000/svg" viewBox="0 0 231.79 80"><defs><style>.cls-1{fill:#202020;}.cls-2{fill:#616161;}.cls-3{fill:#c7c7c7;}.cls-4{fill:none;stroke:#000;stroke-miterlimit:10;}</style></defs><title>logoWeb2</title><path class="cls-1" d="M96,12h3.81V23.58h.11L107.55,12h4.24L105.17,22l7.74,15.5H108.7l-5.82-12L99.79,30v7.42H96Z" transform="translate(-10 -10)"/><path class="cls-1" d="M121.05,12h7.25c4.47,0,7.91,1.87,7.91,7.54,0,5.47-3.44,7.94-7.91,7.94h-3.44v9.94h-3.81Zm6.85,11.88c2.95,0,4.55-1.45,4.55-4.34s-1.6-3.93-4.55-3.93h-3v8.27Zm-.32,2.4,2.76-2.69,6.72,13.83h-4.29Z" transform="translate(-10 -10)"/><path class="cls-1" d="M146,12h3.81V37.45H146Z" transform="translate(-10 -10)"/><path class="cls-1" d="M159.2,34.19l2.22-3.09A7.9,7.9,0,0,0,167,34c2.42,0,3.75-1.3,3.75-3.28S169.38,28,167.43,27l-2.94-1.51a7.18,7.18,0,0,1-4.35-6.74,7,7,0,0,1,7.23-7.17A8.73,8.73,0,0,1,174,14.81l-2,2.86a6.39,6.39,0,0,0-4.67-2.19c-2,0-3.37,1.13-3.37,3s1.64,2.73,3.42,3.6l2.9,1.43a7,7,0,0,1,4.35,6.86,7.33,7.33,0,0,1-7.73,7.55A10.27,10.27,0,0,1,159.2,34.19Z" transform="translate(-10 -10)"/><path class="cls-1" d="M187.72,15.82h-6.21V12h16.23v3.79h-6.21V37.45h-3.81Z" transform="translate(-10 -10)"/><path class="cls-1" d="M209.66,12h4.48l7,25.42h-4l-3.28-13.53c-.68-2.69-1.31-5.59-1.94-8.38h-.13c-.6,2.82-1.23,5.69-1.91,8.38l-3.3,13.53h-3.9ZM206.8,27h10.12v3.54H206.8Z" transform="translate(-10 -10)"/><path class="cls-1" d="M229.05,12h3.81V33.66h8.93v3.79H229.05Z" transform="translate(-10 -10)"/><path class="cls-1" d="M94.85,71.45c0-8.31,4.46-13.26,10.18-13.26a8.26,8.26,0,0,1,6.49,3.22l-2,2.91a5.49,5.49,0,0,0-4.34-2.21c-3.82,0-6.38,3.5-6.38,9.2s2.27,9.32,6.59,9.32a4.35,4.35,0,0,0,3.06-1.12V74h-4v-3.7h7.47V81.53a9,9,0,0,1-6.87,3C99.17,84.54,94.85,79.86,94.85,71.45Z" transform="translate(-10 -10)"/><path class="cls-1" d="M127.64,58.66h4.47l7,25.42h-4l-3.27-13.53c-.69-2.69-1.32-5.59-1.95-8.38h-.13c-.59,2.82-1.23,5.69-1.91,8.38l-3.3,13.53h-3.89Zm-2.87,15H134.9v3.54H124.77Z" transform="translate(-10 -10)"/><path class="cls-1" d="M148.57,58.66h4.32l3.8,12.42c.47,1.62.91,3.33,1.38,5h.13c.48-1.66.88-3.37,1.36-5l3.72-12.42h4.31V84.08H164.1V72.45c0-2.35.3-5.73.48-8.08h-.13l-1.74,5.9-3.53,11.42h-2.27l-3.55-11.42-1.71-5.9h-.13c.19,2.35.49,5.73.49,8.08V84.08h-3.44Z" transform="translate(-10 -10)"/><path class="cls-1" d="M180.07,58.66h3.81V84.08h-3.81Z" transform="translate(-10 -10)"/><path class="cls-1" d="M196.34,58.66h3.92L206.94,73l2.22,5.42h.13c-.18-2.62-.48-5.84-.48-8.67v-11h3.63V84.08h-3.92l-6.69-14.31-2.22-5.4h-.13c.19,2.68.49,5.75.49,8.58V84.08h-3.63Z" transform="translate(-10 -10)"/><path class="cls-1" d="M223.77,71.45c0-8.31,4.46-13.26,10.18-13.26a8.27,8.27,0,0,1,6.5,3.22l-2,2.91a5.47,5.47,0,0,0-4.34-2.21c-3.81,0-6.38,3.5-6.38,9.2s2.28,9.32,6.59,9.32a4.38,4.38,0,0,0,3.07-1.12V74h-4v-3.7h7.47V81.53a9,9,0,0,1-6.87,3C228.1,84.54,223.77,79.86,223.77,71.45Z" transform="translate(-10 -10)"/><polygon class="cls-2" points="0 20 0 60 34.54 40 0 20"/><polygon class="cls-1" points="0 60 34.54 80 69.09 60 34.54 40 0 60"/><polygon class="cls-3" points="34.54 0 0 20 34.54 40 69.09 60 69.09 20 34.54 0"/><line class="cls-4" x1="76.17" x2="76.17" y2="80"/></svg>